<svg xmlns="http://www.w3.org/2000/svg" version="1.1" xmlns:xlink="http://www.w3.org/1999/xlink" xmlns:svgjs="http://svgjs.dev/svgjs" width="100%" height="100%" viewBox="0 0 1000 600"><rect width="1000" height="600" x="0" y="0" fill="#262223"/><g><rect width="333.3333333333333" height="333.3333333333333" rx="13.333333333333334" ry="13.333333333333334" y="130.42787072188904" fill="#ddc6b6" transform="matrix(1.155207723044965,0,0,1.155207723044965,0,-43.20590841818344)" x="108.20565032958984"/><path d="M272.1584057850105 369.8612190080287L155.85610951129956 369.8612190080287L155.85610951129956 359.2882829831459Q161.53835587761358 351.74022437714666 168.71890601215966 342.3828932963012Q175.89945614670575 333.0255622154557 183.16481592851022 323.55515160493235Q190.4584455927342 314.0847409944089 196.56474019534033 306.14090403453713L196.56474019534033 306.14090403453713L251.80409044299006 233.99616410004262L256.10111257074993 240.49823705652136L214.6574649438029 240.49823705652136Q201.85120820778172 240.49823705652136 187.43356817385063 240.49823705652136Q173.044198022339 240.49823705652136 157.4674928092095 240.49823705652136L157.4674928092095 240.49823705652136L157.4674928092095 224.72364266645553L271.3668490772652 224.72364266645553L271.3668490772652 237.95394763876882Q261.78335893706395 250.27961637365894 252.68045679799374 262.18123687225693Q243.57755465892353 274.082857370855 234.41811275501433 286.0127477518725L234.41811275501433 286.0127477518725L176.09734532364206 361.83257240089836L173.35516672895318 354.0866246179629L211.2085392886272 354.0866246179629Q220.2549016628585 354.0866246179629 231.3649654537113 354.0866246179629Q242.44675936214463 354.0866246179629 253.18931468154426 354.0866246179629Q263.9318700009439 354.0866246179629 272.1584057850105 354.0866246179629L272.1584057850105 354.0866246179629L272.1584057850105 369.8612190080287ZM343.70947818869604 372.0945397191671L343.70947818869604 372.0945397191671Q334.66311581446473 372.0945397191671 325.44713414571663 370.4266166564181Q316.2311524769685 368.7304237112497 308.45693481161345 366.2426740583362Q300.654447263839 363.75492440542257 295.8768371349481 361.21063498767L295.8768371349481 361.21063498767L297.6012999625359 343.7963874172748Q304.44261150804834 347.58455166148417 311.82105081953074 350.383270021012Q319.19949013101314 353.1819883805398 326.86062826669024 354.70856203119126Q334.55003628478687 356.23513568184285 342.60695277433655 356.23513568184285L342.60695277433655 356.23513568184285Q351.65331514856786 356.23513568184285 358.9186749303724 353.7191161465097Q366.21230459459633 351.23136649359606 370.42451707509775 345.80354906905734Q374.6649994380187 340.3474617620991 374.6649994380187 331.4989885648041L374.6649994380187 331.4989885648041Q374.6649994380187 323.75304078186855 370.28316766300037 318.72100171120246Q365.90133588798216 313.68896264053626 357.6182603390766 310.01387792600485Q349.30691490775166 306.36706309389285 337.5183739388315 302.69197837936144L337.5183739388315 302.69197837936144Q323.6661315532898 298.3101466043431 313.8847522361523 293.22156776883804Q304.13164280143417 288.13298893333297 298.9865242010901 280.6697399745921Q293.84140560074604 273.17822113343186 293.84140560074604 261.58756934144805L293.84140560074604 261.58756934144805Q293.84140560074604 250.27961637365894 299.1844133780264 241.31806364668608Q304.5274211553068 232.3565109197132 315.12862706260904 227.23966220178863Q325.7015630874919 222.09454360144457 341.3630779478798 222.09454360144457L341.3630779478798 222.09454360144457Q347.89342078677794 222.09454360144457 354.25414433115935 222.99917983886772Q360.61486787554077 223.93208595871033 366.41019377153265 225.48692949178132Q372.2055196675246 227.07004290727178 376.9831297964155 229.0206647942154Q381.7890098077258 230.94301679873956 385.1248559332236 232.97844833294158L385.1248559332236 232.97844833294158L383.3155834583774 250.47750555059525Q377.0962093260933 246.32183283493274 370.1700881333225 243.52311447540495Q363.2439669405517 240.72439611587714 356.43092527745875 239.33917187732297Q349.61788361436584 237.95394763876882 343.8225577183739 237.95394763876882L343.8225577183739 237.95394763876882Q335.56775205188785 237.95394763876882 328.641630859117 240.41342740926294Q321.7437795487657 242.84463729733758 317.50329718584476 247.87667636800376Q313.29108470534334 252.93698532108937 313.29108470534334 260.8525523985417L313.29108470534334 260.8525523985417Q313.29108470534334 267.77867359131255 316.8530898901969 272.35839454326714Q320.41509507505043 276.9381154952217 328.10450309314706 280.55666044491426Q335.76564122882417 284.1752053946068 347.89342078677794 288.0481792860745L347.89342078677794 288.0481792860745Q365.39247800443167 293.5325364754523 375.42828626334443 299.1865129593468Q385.4358246398378 304.8404894432414 389.67630700275873 312.24719863714324Q393.88851948326015 319.6821777134645 393.88851948326015 330.4812727977031L393.88851948326015 330.4812727977031Q393.88851948326015 342.3828932963012 388.6585912356577 351.74022437714666Q383.4003931056357 361.09755545799214 372.31859919720245 366.6101825297893Q361.2085354063496 372.0945397191671 343.70947818869604 372.0945397191671Z " fill="#262223" transform="matrix(1.155207723044965,0,0,1.155207723044965,0,-43.20590841818344)"/><path d="M640.2501870826945 372.09454230735207L616.3799105661833 372.09454230735207Q606.3877017918298 361.25504097610894 597.5933893910099 351.73030395728074Q588.8282939749103 342.2347839231728 580.5014533296157 333.17751865986986L580.5014533296157 333.17751865986986L552.0148932272921 302.3535997799197L541.7012976210149 302.3535997799197L541.7012976210149 286.6932959698218L551.8980252884107 286.6932959698218L576.6155943618115 260.92391544648905Q585.3514727931907 251.86665018318612 593.8828323315277 242.92625285876454Q602.3849748851443 233.985855534343 613.6335140024721 222.09454275316787L613.6335140024721 222.09454275316787L636.773365900975 222.09454275316787Q625.2034399517236 233.985855534343 614.2178536968787 245.40969655999277Q603.2322674420338 256.8043206009222 592.3051151566298 268.1697276571314L592.3051151566298 268.1697276571314L564.519762687594 297.09454253025996L564.1983758556705 288.6800509308044L595.0222947356207 322.65940416055037Q602.2973239309833 330.4311220961587 610.448862667956 339.4883873594616Q618.6004014049286 348.54565262276446 626.4889872794181 357.0477951763811Q634.3775731539077 365.579154714718 640.2501870826945 372.09454230735207L640.2501870826945 372.09454230735207ZM543.9217884597601 372.09454230735207L524.8723144221037 372.09454230735207Q524.8723144221037 359.58967284705 524.8723144221037 348.01974689779854Q524.8723144221037 336.4498209485471 524.8723144221037 322.542536221669L524.8723144221037 322.542536221669L524.8723144221037 272.28932250269816Q524.8723144221037 258.08986792861685 524.8723144221037 246.3446400710434Q524.8723144221037 234.62862919819028 524.8723144221037 222.09454275316787L524.8723144221037 222.09454275316787L543.9217884597601 222.09454275316787Q543.9217884597601 234.62862919819028 543.9217884597601 246.3446400710434Q543.9217884597601 258.08986792861685 543.9217884597601 272.28932250269816L543.9217884597601 272.28932250269816L543.9217884597601 322.542536221669Q543.9217884597601 336.4498209485471 543.9217884597601 348.01974689779854Q543.9217884597601 359.58967284705 543.9217884597601 372.09454230735207L543.9217884597601 372.09454230735207ZM684.7476548117601 372.09454230735207L666.0195676060273 372.09454230735207Q666.0195676060273 359.58967284705 666.0195676060273 348.01974689779854Q666.0195676060273 336.4498209485471 666.0195676060273 322.542536221669L666.0195676060273 322.542536221669L666.0195676060273 272.28932250269816Q666.0195676060273 258.08986792861685 666.0195676060273 246.3446400710434Q666.0195676060273 234.62862919819028 666.0195676060273 222.09454275316787L666.0195676060273 222.09454275316787L757.4395127959459 222.09454275316787L757.4395127959459 238.51448816599444Q746.9213982966264 238.51448816599444 734.8547836071293 238.51448816599444Q722.8173859023526 238.51448816599444 706.5143084284074 238.51448816599444L706.5143084284074 238.51448816599444L676.6545500442281 238.51448816599444L684.7476548117601 224.8409393168791Q684.7476548117601 237.46267671606248 684.7476548117601 249.17868758891558Q684.7476548117601 260.92391544648905 684.7476548117601 275.00650208168906L684.7476548117601 275.00650208168906L684.7476548117601 322.542536221669Q684.7476548117601 336.4498209485471 684.7476548117601 348.01974689779854Q684.7476548117601 359.58967284705 684.7476548117601 372.09454230735207L684.7476548117601 372.09454230735207ZM707.6829878172206 304.9831284047496L680.2190221801086 304.9831284047496L680.2190221801086 289.11830570160936L707.887506710263 289.11830570160936Q722.4083481162679 289.11830570160936 732.9264626155874 289.11830570160936Q743.4445771149069 289.11830570160936 753.2322669962181 289.11830570160936L753.2322669962181 289.11830570160936L753.2322669962181 304.9831284047496Q742.8018034510596 304.9831284047496 732.3421229211808 304.9831284047496Q721.882442391302 304.9831284047496 707.6829878172206 304.9831284047496L707.6829878172206 304.9831284047496Z " fill="#ddc6b6" transform="matrix(1.155207723044965,0,0,1.155207723044965,0,-43.20590841818344)"/></g></svg>